<svg width="65" height="65" viewBox="0 0 65 65" fill="none" xmlns="http://www.w3.org/2000/svg">
<path d="M32.2488 16.6224V28.6046M32.2488 16.6224L42.4889 11.5237M32.2488 16.6224L22.0088 11.5237M32.2488 28.6046L42.4889 22.741V11.5237M32.2488 28.6046L22.0088 22.741V11.5237M42.4889 11.5237L32.2488 6L22.0088 11.5237" stroke="#5F58FF" stroke-width="3.25047" stroke-linejoin="round"/>
<path d="M13.4676 46.0209V58.003M13.4676 46.0209L23.7076 40.9221M13.4676 46.0209L3.22754 40.9221M13.4676 58.003L23.7076 52.1394V40.9221M13.4676 58.003L3.22754 52.1394V40.9221M23.7076 40.9221L13.4676 35.3984L3.22754 40.9221" stroke="#5F58FF" stroke-width="3.25047" stroke-linejoin="round"/>
<path d="M51.0301 46.0209V58.003M51.0301 46.0209L61.2701 40.9221M51.0301 46.0209L40.79 40.9221M51.0301 58.003L61.2701 52.1394V40.9221M51.0301 58.003L40.79 52.1394V40.9221M61.2701 40.9221L51.0301 35.3984L40.79 40.9221" stroke="#5F58FF" stroke-width="3.25047" stroke-linejoin="round"/>
<path d="M27.7881 28.1719L21.2021 37.2647" stroke="#5F58FF" stroke-width="3.25047" stroke-linecap="round"/>
<path d="M36.8799 28.1719L43.4658 37.2647" stroke="#5F58FF" stroke-width="3.25047" stroke-linecap="round"/>
<path d="M25.6611 47.2891L38.9179 47.2891" stroke="#5F58FF" stroke-width="3.25047" stroke-linecap="round"/>
</svg>
